<svg xmlns="http://www.w3.org/2000/svg" width="920" height="560" viewBox="0 0 920 560">
  <rect width="920" height="560" fill="#f3f4f6"/>
  <rect x="84" y="40" width="320" height="480" rx="36" fill="#ffffff" stroke="#d1d5db"/>
  <rect x="516" y="40" width="320" height="480" rx="36" fill="#ffffff" stroke="#d1d5db"/>
  <text x="120" y="110" fill="#111827" font-family="Arial, sans-serif" font-size="30" font-weight="700">Cryptocurrencies</text>
  <text x="350" y="110" fill="#2563eb" font-family="Arial, sans-serif" font-size="30">+</text>
  <line x1="120" y1="150" x2="368" y2="150" stroke="#e5e7eb"/>
  <text x="120" y="190" fill="#111827" font-family="Arial, sans-serif" font-size="19" font-weight="700">Bitcoin</text>
  <text x="120" y="218" fill="#6b7280" font-family="Arial, sans-serif" font-size="15">BTC</text>
  <text x="276" y="202" fill="#111827" font-family="Arial, sans-serif" font-size="18">$43120.50</text>
  <line x1="120" y1="246" x2="368" y2="246" stroke="#e5e7eb"/>
  <text x="120" y="286" fill="#111827" font-family="Arial, sans-serif" font-size="19" font-weight="700">Ethereum</text>
  <text x="120" y="314" fill="#6b7280" font-family="Arial, sans-serif" font-size="15">ETH</text>
  <text x="284" y="298" fill="#111827" font-family="Arial, sans-serif" font-size="18">$2280.75</text>
  <rect x="112" y="454" width="264" height="44" rx="16" fill="#eff6ff"/>
  <text x="150" y="482" fill="#2563eb" font-family="Arial, sans-serif" font-size="16">Cryptocurrencies</text>
  <text x="552" y="110" fill="#111827" font-family="Arial, sans-serif" font-size="30" font-weight="700">Bitcoin</text>
  <text x="628" y="174" fill="#111827" font-family="Arial, sans-serif" font-size="31">$43120.50</text>
  <text x="552" y="234" fill="#374151" font-family="Arial, sans-serif" font-size="17">From</text>
  <rect x="620" y="210" width="130" height="36" rx="8" fill="#e0f2fe"/>
  <text x="640" y="234" fill="#2563eb" font-family="Arial, sans-serif" font-size="16">Jun 1, 2022</text>
  <text x="552" y="292" fill="#111827" font-family="Arial, sans-serif" font-size="18">Jun 1, 2022</text>
  <text x="732" y="292" fill="#111827" font-family="Arial, sans-serif" font-size="18" font-weight="700">$41994.23</text>
  <line x1="552" y1="316" x2="800" y2="316" stroke="#e5e7eb"/>
  <text x="552" y="354" fill="#111827" font-family="Arial, sans-serif" font-size="18">Jun 2, 2022</text>
  <text x="732" y="354" fill="#111827" font-family="Arial, sans-serif" font-size="18" font-weight="700">$42350.21</text>
</svg>
